<svg xmlns="http://www.w3.org/2000/svg" width="121.042" height="32mm" viewBox="0 0 32.026 32"><path d="M0 0h32.026v32H0z" style="fill:#222;fill-opacity:1;stroke-width:.451533"/><g aria-label="NF" style="font-size:19.7556px;stroke-width:.264583"><path d="M13.719 23.051 6.01 12.171v8.546q0 .424.077.675.087.251.222.386t.319.183q.193.039.395.039h.83v1.051H2.693V22h.83q.212 0 .395-.039.183-.048.318-.183.145-.135.222-.386.077-.25.077-.675v-9.52q0-.396-.086-.628-.078-.241-.222-.366-.135-.126-.319-.164-.183-.049-.385-.049h-.83V8.95h4.389l6.974 9.858v-7.61q0-.396-.087-.628-.077-.241-.221-.366-.135-.126-.319-.164-.183-.049-.386-.049h-.83V8.95h5.162V9.99h-.83q-.203 0-.386.049-.183.038-.328.173-.135.135-.212.386-.077.25-.077.675v11.778zM27.928 12.585l-.097-.955q-.096-.781-.482-1.128-.376-.348-.984-.348H23.22v5.393h4.688v1.167H23.22v4.003q0 .424.077.675.087.251.222.386t.328.183q.193.039.405.039h1.225v1.051h-7.215V22h.83q.212 0 .395-.039.183-.038.318-.154.145-.125.222-.357.077-.241.077-.627v-9.627q0-.395-.077-.627-.077-.241-.222-.366-.135-.126-.318-.164-.183-.049-.395-.049h-.83V8.95h10.949l.096 3.636z" style="font-weight:700;font-family:&quot;Noto Serif&quot;;-inkscape-font-specification:&quot;Noto Serif Bold&quot;;fill:#fff"/></g></svg>