<?xml version="1.0" standalone="no"?>
<!DOCTYPE svg PUBLIC "-//W3C//DTD SVG 20010904//EN"
 "http://www.w3.org/TR/2001/REC-SVG-20010904/DTD/svg10.dtd">
<svg version="1.0" xmlns="http://www.w3.org/2000/svg"
 width="700.000000pt" height="700.000000pt" viewBox="0 0 700.000000 700.000000"
 preserveAspectRatio="xMidYMid meet">
<metadata>
Created by potrace 1.14, written by Peter Selinger 2001-2017
</metadata>
<g transform="translate(0.000000,700.000000) scale(0.100000,-0.100000)"
fill="#000000" stroke="none">
<path d="M0 3500 l0 -3500 3500 0 3500 0 0 3500 0 3500 -3500 0 -3500 0 0
-3500z m2305 465 c417 -591 763 -1075 768 -1075 4 0 6 395 5 878 -3 813 -4
880 -21 922 -40 101 -83 123 -254 128 l-133 4 0 109 0 109 560 0 560 0 0 -109
0 -109 -127 -4 c-152 -5 -191 -19 -228 -82 -13 -22 -29 -70 -34 -106 -7 -43
-11 -506 -11 -1367 l0 -1303 -194 0 -194 0 -831 1173 c-456 644 -837 1181
-845 1192 -14 18 -15 -77 -13 -980 l2 -1000 27 -56 c42 -84 77 -100 239 -107
l129 -5 0 -108 0 -109 -560 0 -560 0 0 109 0 108 134 5 c151 6 183 17 223 78
49 72 48 45 48 1245 0 1057 -1 1133 -18 1181 -35 102 -102 134 -279 134 l-108
0 0 110 0 110 478 0 477 0 760 -1075z m4079 923 c3 -84 9 -262 12 -395 l7
-243 -146 0 -145 0 -6 28 c-3 15 -8 61 -11 102 -18 206 -68 309 -180 368 l-50
27 -397 3 -398 3 0 -591 0 -590 515 0 515 0 0 -125 0 -125 -516 0 -515 0 3
-502 c3 -459 5 -507 21 -543 10 -22 28 -50 40 -63 46 -49 71 -55 255 -60 l172
-5 0 -108 0 -109 -780 0 -780 0 0 110 0 110 88 0 c111 0 200 15 232 38 14 10
36 40 50 68 l25 49 3 1125 c3 1190 2 1211 -43 1281 -37 58 -81 72 -227 77
l-128 4 0 109 0 109 1189 0 1189 0 6 -152z"/>
</g>
</svg>
